<?xml version="1.0" ?><svg viewBox="0 0 1024 1024" xmlns="http://www.w3.org/2000/svg"><path d="M512 517.810845m-271.172762 0a271.172762 271.172762 0 1 0 542.345524 0 271.172762 271.172762 0 1 0-542.345524 0Z" fill="#E9EAEB"/><path d="M839.989912 840.635561H650.168979c-15.495586 0-29.699874-7.747793-37.447668-19.369483l-92.973518-127.838587 20.660782-15.495587 92.973518 127.838588c3.873897 5.165195 10.330391 9.039092 16.786886 9.039092h189.820933c11.62169 0 20.660782-9.039092 20.660782-20.660782V581.084489c0-3.873897-1.291299-9.039092-3.873897-12.912988L713.442623 374.476671l20.660782-15.495587 143.334174 193.69483c6.456494 7.747793 9.039092 18.078184 9.039092 27.117276v213.064313c0 27.117276-20.660782 47.778058-46.486759 47.778058z" fill="#2A5082"/><path d="M708.277427 667.601513L606.264817 526.849937c-3.873897-5.165195-10.330391-9.039092-16.786885-9.039092H438.395965c-15.495586 0-28.408575-7.747793-37.447667-19.369483l-102.012611-140.751576 20.660782-15.495587 102.01261 140.751577c3.873897 5.165195 10.330391 9.039092 16.786886 9.039092h151.081967c15.495586 0 28.408575 7.747793 37.447667 19.369483l102.01261 140.751576-20.660782 15.495586z" fill="#2A5082"/><path d="M289.896595 663.727617l-143.334174-193.69483c-5.165195-7.747793-9.039092-18.078184-9.039092-27.117276V229.851198c0-25.825977 20.660782-46.486759 46.486759-46.486759H373.831021c15.495586 0 29.699874 7.747793 37.447668 19.369483l92.973518 127.838587-20.660782 15.495587-92.973518-127.838588c-3.873897-5.165195-10.330391-9.039092-16.786886-9.039092H184.010088c-11.62169 0-20.660782 9.039092-20.660782 20.660782v213.064313c0 3.873897 1.291299 9.039092 3.873897 12.912988l143.334174 193.69483-20.660782 14.204288z" fill="#2A5082"/><path d="M718.607818 351.233291m-55.525851 0a55.525851 55.525851 0 1 0 111.051703 0 55.525851 55.525851 0 1 0-111.051703 0Z" fill="#A3D4FF"/><path d="M718.607818 419.672131c-37.447667 0-68.43884-30.991173-68.438839-68.43884s30.991173-68.43884 68.438839-68.43884 68.43884 30.991173 68.43884 68.43884-29.699874 68.43884-68.43884 68.43884z m0-111.051702c-23.24338 0-42.612863 19.369483-42.612862 42.612862s19.369483 42.612863 42.612862 42.612863c23.24338 0 42.612863-19.369483 42.612863-42.612863s-18.078184-42.612863-42.612863-42.612862z" fill="#2A5082"/><path d="M514.582598 406.759142c-30.991173 0-55.525851-24.534678-55.525851-55.525851s24.534678-55.525851 55.525851-55.525851 55.525851 24.534678 55.525851 55.525851-24.534678 55.525851-55.525851 55.525851z" fill="#A3D4FF"/><path d="M514.582598 419.672131c-37.447667 0-68.43884-30.991173-68.43884-68.43884s30.991173-68.43884 68.43884-68.43884 68.43884 30.991173 68.43884 68.43884-30.991173 68.43884-68.43884 68.43884z m0-111.051702c-23.24338 0-42.612863 19.369483-42.612863 42.612862s19.369483 42.612863 42.612863 42.612863c23.24338 0 42.612863-19.369483 42.612862-42.612863s-19.369483-42.612863-42.612862-42.612862z" fill="#2A5082"/><path d="M309.266078 406.759142c-30.991173 0-55.525851-24.534678-55.525851-55.525851s24.534678-55.525851 55.525851-55.525851 55.525851 24.534678 55.525851 55.525851-24.534678 55.525851-55.525851 55.525851z" fill="#A3D4FF"/><path d="M309.266078 419.672131c-37.447667 0-68.43884-30.991173-68.43884-68.43884s30.991173-68.43884 68.43884-68.43884 68.43884 30.991173 68.43884 68.43884-30.991173 68.43884-68.43884 68.43884z m0-111.051702c-23.24338 0-42.612863 19.369483-42.612862 42.612862s19.369483 42.612863 42.612862 42.612863c23.24338 0 42.612863-19.369483 42.612863-42.612863s-19.369483-42.612863-42.612863-42.612862z" fill="#2A5082"/><path d="M718.607818 662.436318m-55.525851 0a55.525851 55.525851 0 1 0 111.051703 0 55.525851 55.525851 0 1 0-111.051703 0Z" fill="#A3D4FF"/><path d="M718.607818 730.875158c-37.447667 0-68.43884-30.991173-68.438839-68.43884s30.991173-68.43884 68.438839-68.43884 68.43884 30.991173 68.43884 68.43884-29.699874 68.43884-68.43884 68.43884z m0-111.051703c-23.24338 0-42.612863 19.369483-42.612862 42.612863 0 23.24338 19.369483 42.612863 42.612862 42.612862 23.24338 0 42.612863-19.369483 42.612863-42.612862 0-23.24338-18.078184-42.612863-42.612863-42.612863z" fill="#2A5082"/><path d="M514.582598 662.436318m-55.525851 0a55.525851 55.525851 0 1 0 111.051702 0 55.525851 55.525851 0 1 0-111.051702 0Z" fill="#A3D4FF"/><path d="M514.582598 730.875158c-37.447667 0-68.43884-30.991173-68.43884-68.43884S477.134931 593.997478 514.582598 593.997478s68.43884 30.991173 68.43884 68.43884-30.991173 68.43884-68.43884 68.43884z m0-111.051703c-23.24338 0-42.612863 19.369483-42.612863 42.612863 0 23.24338 19.369483 42.612863 42.612863 42.612862 23.24338 0 42.612863-19.369483 42.612862-42.612862 0-23.24338-19.369483-42.612863-42.612862-42.612863z" fill="#2A5082"/><path d="M309.266078 662.436318m-55.525851 0a55.525851 55.525851 0 1 0 111.051702 0 55.525851 55.525851 0 1 0-111.051702 0Z" fill="#A3D4FF"/><path d="M309.266078 730.875158c-37.447667 0-68.43884-30.991173-68.43884-68.43884S271.818411 593.997478 309.266078 593.997478s68.43884 30.991173 68.43884 68.43884-30.991173 68.43884-68.43884 68.43884z m0-111.051703c-23.24338 0-42.612863 19.369483-42.612862 42.612863 0 23.24338 19.369483 42.612863 42.612862 42.612862 23.24338 0 42.612863-19.369483 42.612863-42.612862 0-23.24338-19.369483-42.612863-42.612863-42.612863zM253.740227 814.809584h25.825977v25.825977h-25.825977zM305.392182 814.809584h25.825977v25.825977h-25.825977zM357.044136 814.809584h219.520807v25.825977h-219.520807zM137.523329 530.723834h25.825977v90.39092h-25.825977zM137.523329 646.940731h25.825977v25.825978h-25.825977zM137.523329 698.592686h25.825977v25.825977h-25.825977zM744.433796 182.07314h25.825977v25.825977h-25.825977zM692.781841 182.07314h25.825977v25.825977h-25.825977zM447.435057 182.07314h219.520807v25.825977h-219.520807zM860.650694 401.593947h25.825977v90.390921h-25.825977zM860.650694 349.941992h25.825977v25.825978h-25.825977zM860.650694 298.290038h25.825977v25.825977h-25.825977z" fill="#2A5082"/></svg>